<?xml version="1.0" encoding="utf-8"?>
<!-- Generator: Adobe Illustrator 28.0.0, SVG Export Plug-In . SVG Version: 6.00 Build 0)  -->
<svg version="1.1" id="Слой_1" xmlns="http://www.w3.org/2000/svg" xmlns:xlink="http://www.w3.org/1999/xlink" x="0px" y="0px"
	 viewBox="0 0 800 800" style="enable-background:new 0 0 800 800;" xml:space="preserve">
<g>
	<polygon points="669.9,441.7 669.9,130.1 130.1,130.1 130.1,441.7 400,253.8 	"/>
	<path d="M669.9,503.4L400,315.5L130.1,503.4v166.5H267l-20.7-51.7c-1.4,0.3-2.7-0.1-3.2-1.1c-1.7-3.6-6.6-10.5-18-7.5
		c-17.5,4.6-14.2,12-15.7,13.8c-1.5,1.8-24.1,10.4-24.1,10.4c-1.4,0.6-2.9,0.3-3.6-0.7c-2.6-3.9-8.9-14.2-10.9-27.3
		c-0.2-1.1,0.7-2.4,2.1-2.9c24.1-9.6,22.9-9.6,24.6-9.1c4,1.4,7.4,4.9,17,1.8c15.6-5,14.2-18.2,13.2-22.7c-0.2-1,0.4-2.1,1.5-2.8
		c5.5-3.4,15.3-7.3,15.3-7.3c36.1-14.4,64.1-4.3,78.7,3.9c2.5,1.4,0.1,5-3,4.6c-25.7-3.4-42.8,7-47.8,10.5c-0.9,0.7-1.4,1.7-1.3,2.6
		l4,20.1c0.3,1.5-1.2,2.9-2.4,3.1l24.9,62.3h68.1l12.3-54c1-4.7,1.1-5.7,9.8-3.4l7,1.5c1.4-4.7,7.5-25.9,8.7-27.7
		c2.7-3.9,8.2-3.3,12.3-3.6l84.6-5.1l9.4-32.5l-8-2c-3.6,12.2-16,21.1-28.1,17.4c0,0-98.6-25.6-98.6-25.6c-7.5-2-13.2-7.2-15.7-14.6
		c-3.2-9.2,0.4-18.8,2.8-27.7c2-7.4,6.6-13.5,13.9-16.5c8.6-3.5,17.1-0.8,25.6,1.4c4.9,1.3,78.1,19.9,91.7,24
		c5.3,1.6,9.5,5.8,11.3,11c2.5,7.3,0.6,15.6,0.6,15.6l8.8,2.5l8.9,2.6c5.4,2,3.3,9.1,2,13.9c-1.5,5.3-7,32.4-9.7,40
		c-0.8,2.2-4.7,5.6-8.5,5.5l-89.9,6.9c-0.9,0.1-1.7,0.7-2,1.6l-4.4,16.6l7.4,1.9c5.1,1.2,7.6,2.3,6.9,6.2l-10,43.9h124.2
		c6.1-14.5,10.5-24.7,11.5-27.4c2.7-6.8,4-14.1,4-21.4c0-7.9-2.2-15.7-1.4-23.6c1.7-16.8,18-26.4,32.2-31.7
		c4.2-1.6,8.7-1.6,12.3,1.5c0,0-17.6,23.6-17.8,24.2c-2.2,5,1.9,10.8,5,14.5c4,4.7,8.7,8.6,14.9,9.9c3.3,0.7,5.4,0.3,7.4-2.2
		c1.9-2.3,3.8-4.7,5.7-7c2-2.4,4-4.8,5.9-7.2c1.3-1.6,2.7-3.3,4-4.9c0-0.1,0.1-0.1,0.2-0.1c0,0,2.8-3.4,2.8-3.4
		c0.3-0.3,2.2,1,3.1,4.6c3.6,13.9-4.1,33.9-15.7,41.7c-4.8,3.3-10.7,3.8-15.5,7c-4.8,3.1-8.5,6.8-11.2,11.5l-6,14.1h88.8V503.4z"/>
</g>
</svg>
