<?xml version="1.0" encoding="utf-8"?>
<!-- Generator: Adobe Illustrator 28.0.0, SVG Export Plug-In . SVG Version: 6.00 Build 0)  -->
<svg version="1.1" id="Слой_1" xmlns="http://www.w3.org/2000/svg" xmlns:xlink="http://www.w3.org/1999/xlink" x="0px" y="0px"
	 viewBox="0 0 650 200" style="enable-background:new 0 0 650 200;" xml:space="preserve">
<style type="text/css">
	.st0{fill:#EF7F11;}
	.st1{fill:#1C3D77;}
</style>
<g>
	<g>
		<polygon class="st0" points="134.4,107.8 134.4,47.7 30.4,47.7 30.4,107.8 82.4,71.6 		"/>
	</g>
	<g>
		<path class="st1" d="M134.4,119.7l-52-36.2l-52,36.2v32.1h26.4l-4-10c-0.3,0.1-0.5,0-0.6-0.2c-0.3-0.7-1.3-2-3.5-1.5
			c-3.4,0.9-2.7,2.3-3,2.7c-0.3,0.3-4.6,2-4.6,2c-0.3,0.1-0.6,0.1-0.7-0.1c-0.5-0.7-1.7-2.7-2.1-5.3c0-0.2,0.1-0.5,0.4-0.6
			c4.7-1.8,4.4-1.9,4.7-1.7c0.8,0.3,1.4,0.9,3.3,0.4c3-1,2.7-3.5,2.5-4.4c0-0.2,0.1-0.4,0.3-0.5c1.1-0.6,2.9-1.4,2.9-1.4
			c7-2.8,12.4-0.8,15.2,0.8c0.5,0.3,0,1-0.6,0.9c-5-0.7-8.2,1.3-9.2,2c-0.2,0.1-0.3,0.3-0.2,0.5l0.8,3.9c0.1,0.3-0.2,0.6-0.5,0.6
			l4.8,12h13.1l2.4-10.4c0.2-0.9,0.2-1.1,1.9-0.6l1.4,0.3c0.3-0.9,1.4-5,1.7-5.3c0.5-0.7,1.6-0.6,2.4-0.7c0,0,16.3-1,16.3-1l1.8-6.3
			l-1.5-0.4c-0.7,2.4-3.1,4.1-5.4,3.4c0,0-19-4.9-19-4.9c-1.5-0.4-2.5-1.4-3-2.8c-0.6-1.8,0.1-3.6,0.5-5.3c0.4-1.4,1.3-2.6,2.7-3.2
			c1.7-0.7,3.3-0.1,4.9,0.3c0.9,0.2,15.1,3.8,17.7,4.6c1,0.3,1.8,1.1,2.2,2.1c0.5,1.4,0.1,3,0.1,3l1.7,0.5l1.7,0.5
			c1,0.4,0.6,1.8,0.4,2.7c-0.3,1-1.4,6.2-1.9,7.7c-0.1,0.4-0.9,1.1-1.6,1.1l-17.3,1.3c-0.2,0-0.3,0.1-0.4,0.3l-0.8,3.2l1.4,0.4
			c1,0.2,1.5,0.4,1.3,1.2l-1.9,8.5h23.9c1.2-2.8,2-4.8,2.2-5.3c0.5-1.3,0.8-2.7,0.8-4.1c0-1.5-0.4-3-0.3-4.5
			c0.3-3.2,3.5-5.1,6.2-6.1c0.8-0.3,1.7-0.3,2.4,0.3c0,0-3.4,4.5-3.4,4.7c-0.4,1,0.4,2.1,1,2.8c0.8,0.9,1.7,1.7,2.9,1.9
			c0.6,0.1,1,0.1,1.4-0.4c0.4-0.4,0.7-0.9,1.1-1.4c0.4-0.5,0.8-0.9,1.1-1.4c0.3-0.3,0.5-0.6,0.8-0.9c0,0,0,0,0,0
			c0,0,0.5-0.6,0.5-0.6c0.1-0.1,0.4,0.2,0.6,0.9c0.7,2.7-0.8,6.5-3,8c-0.9,0.6-2.1,0.7-3,1.3c-0.9,0.6-1.6,1.3-2.2,2.2l-1.2,2.7
			h17.1V119.7z"/>
	</g>
	<g>
		<g>
			<path class="st1" d="M173.9,94.5c-1.4,0.6-2.7,1-4,1c-1.6,0-3.1-0.4-4.4-1.2c-1.3-0.8-2.3-1.9-3.1-3.3c-0.7-1.4-1.1-2.9-1.1-4.6
				c0-1.7,0.4-3.2,1.1-4.6c0.7-1.4,1.8-2.4,3.1-3.2c1.3-0.8,2.8-1.2,4.4-1.2c1.4,0,2.8,0.4,4.2,1.1c1.4,0.7,2.6,1.7,3.6,2.9l4.5-5.4
				c-1.6-1.6-3.5-2.9-5.7-3.8s-4.5-1.4-6.8-1.4c-3.1,0-5.9,0.7-8.4,2.1c-2.5,1.4-4.5,3.2-5.9,5.6c-1.4,2.4-2.2,5-2.2,8
				c0,3,0.7,5.7,2.1,8.1s3.4,4.3,5.8,5.7c2.5,1.4,5.2,2.1,8.3,2.1c2.3,0,4.5-0.5,6.8-1.5c2.3-1,4.3-2.4,5.9-4.1l-4.6-4.8
				C176.5,93,175.3,93.9,173.9,94.5z"/>
			<path class="st1" d="M210.2,72.9c-2.5-1.4-5.4-2.1-8.5-2.1c-3.1,0-6,0.7-8.5,2c-2.5,1.4-4.5,3.2-6,5.6c-1.5,2.4-2.2,5-2.2,8
				s0.7,5.7,2.2,8.1s3.5,4.3,6,5.7c2.5,1.4,5.4,2.1,8.5,2.1c3.1,0,6-0.7,8.5-2.1s4.5-3.3,6-5.7c1.4-2.4,2.2-5.1,2.2-8.1
				c0-2.9-0.7-5.6-2.2-8C214.7,76.2,212.7,74.3,210.2,72.9z M209.1,91.3c-0.8,1.4-1.8,2.5-3.1,3.3s-2.7,1.2-4.3,1.2
				c-1.6,0-3-0.4-4.3-1.2c-1.3-0.8-2.4-1.9-3.2-3.3c-0.8-1.4-1.2-3-1.2-4.7c0-1.7,0.4-3.3,1.2-4.6c0.8-1.4,1.9-2.5,3.2-3.3
				c1.3-0.8,2.8-1.2,4.3-1.2c1.6,0,3,0.4,4.3,1.2c1.3,0.8,2.3,1.9,3.1,3.3c0.8,1.4,1.2,2.9,1.2,4.6
				C210.3,88.3,209.9,89.8,209.1,91.3z"/>
			<polygon class="st1" points="245.4,90.2 231.2,71.1 224.2,71.1 224.2,102 231.6,102 231.6,83 245.8,102 252.7,102 252.7,71.1 
				245.4,71.1 			"/>
			<path class="st1" d="M279.7,85.1c-1.4-0.6-3.1-1.2-5.3-1.9c-2.1-0.6-3.6-1.1-4.5-1.7s-1.4-1.3-1.4-2.2c0-0.7,0.3-1.3,0.9-1.7
				s1.4-0.6,2.5-0.6c1.3,0,2.8,0.3,4.7,0.9c1.8,0.6,3.6,1.4,5.2,2.3l3-6.1c-1.6-1.1-3.5-1.9-5.7-2.5c-2.1-0.6-4.3-0.9-6.5-0.9
				c-2.4,0-4.6,0.4-6.5,1.2c-1.9,0.8-3.3,1.8-4.3,3.2c-1,1.4-1.5,3-1.5,4.9c0,2,0.5,3.6,1.5,4.8c1,1.2,2.2,2.1,3.5,2.7
				s3.1,1.2,5.2,1.8c2.1,0.6,3.6,1.1,4.6,1.6s1.5,1.3,1.5,2.3c0,0.9-0.4,1.6-1.1,2c-0.7,0.5-1.7,0.7-3,0.7c-1.6,0-3.5-0.4-5.6-1.3
				c-2.1-0.9-4-2-5.5-3.3l-3,6c1.9,1.5,4,2.7,6.5,3.6c2.5,0.9,5,1.3,7.6,1.3c2.3,0,4.4-0.4,6.3-1.1s3.3-1.8,4.4-3.2
				c1.1-1.4,1.6-3.1,1.6-5.1c0-2.1-0.5-3.7-1.5-4.9C282.3,86.7,281.1,85.8,279.7,85.1z"/>
			<polygon class="st1" points="314.4,71.1 288,71.1 288,77.5 297.2,77.5 297.2,102 305.1,102 305.1,77.5 314.4,77.5 			"/>
			<path class="st1" d="M326.2,71.1L312.9,102h8.1l2.2-5.7h13.5l2.2,5.7h8.4l-13-30.9H326.2z M325.5,90.4L330,79l4.4,11.4H325.5z"/>
			<polygon class="st1" points="373,90.2 358.8,71.1 351.8,71.1 351.8,102 359.2,102 359.2,83 373.4,102 380.3,102 380.3,71.1 
				373,71.1 			"/>
			<polygon class="st1" points="385.5,77.5 394.7,77.5 394.7,102 402.5,102 402.5,77.5 411.8,77.5 411.8,71.1 385.5,71.1 			"/>
			<rect x="416.9" y="71.1" class="st1" width="7.9" height="30.9"/>
			<polygon class="st1" points="453.9,90.2 439.7,71.1 432.7,71.1 432.7,102 440.1,102 440.1,83 454.3,102 461.2,102 461.2,71.1 
				453.9,71.1 			"/>
			<polygon class="st1" points="477,89.6 491.7,89.6 491.7,83.5 477,83.5 477,77.3 493.3,77.3 493.3,71.1 469.1,71.1 469.1,102 
				493.8,102 493.8,95.8 477,95.8 			"/>
			<path class="st1" d="M537.6,89.8l-4.9-3.4c-0.5,1.8-1.2,3.5-2.1,4.9c-1.7-1.7-3.3-3.4-4.9-5.1c2.3-1.2,4.1-2.4,5.4-3.7
				c1.3-1.3,1.9-2.9,1.9-4.8c0-1.4-0.4-2.6-1.1-3.6c-0.8-1-1.8-1.9-3.1-2.4c-1.3-0.6-2.9-0.9-4.6-0.9c-2.7,0-4.8,0.7-6.4,2
				c-1.6,1.3-2.4,3.1-2.4,5.4c0,1.1,0.2,2.2,0.6,3.3c0.4,1.1,1.1,2.3,2,3.6c-1.9,1-3.4,2.2-4.5,3.5c-1.1,1.3-1.6,2.9-1.6,4.7
				c0,1.7,0.5,3.3,1.4,4.6c0.9,1.4,2.2,2.4,3.7,3.2s3.4,1.1,5.4,1.1c1.6,0,3.1-0.3,4.6-0.8s2.9-1.4,4.2-2.4l4.3,4.2l3.9-3.7
				l-4.6-4.3C536,93.6,536.9,91.8,537.6,89.8z M522.2,76c0.5-0.6,1.2-0.9,2.2-0.9c0.8,0,1.5,0.3,2,0.8c0.5,0.5,0.8,1.1,0.8,1.9
				c0,1-0.4,1.8-1.1,2.6c-0.7,0.8-1.7,1.5-3.1,2.2c-1.1-1.6-1.6-3.1-1.6-4.4C521.4,77.3,521.7,76.6,522.2,76z M522.7,97
				c-1.3,0-2.4-0.4-3.3-1.2s-1.3-1.8-1.3-3c0-0.8,0.3-1.5,0.8-2.2c0.5-0.6,1.2-1.3,2.1-1.9c1.1,1.2,3.2,3.4,6.3,6.5
				C525.8,96.5,524.3,97,522.7,97z"/>
			<path class="st1" d="M575.1,94.5c-1.4,0.6-2.7,1-4,1c-1.6,0-3.1-0.4-4.4-1.2c-1.3-0.8-2.3-1.9-3.1-3.3c-0.7-1.4-1.1-2.9-1.1-4.6
				c0-1.7,0.4-3.2,1.1-4.6s1.8-2.4,3.1-3.2c1.3-0.8,2.8-1.2,4.4-1.2c1.4,0,2.8,0.4,4.2,1.1c1.4,0.7,2.6,1.7,3.6,2.9l4.5-5.4
				c-1.6-1.6-3.5-2.9-5.7-3.8c-2.2-0.9-4.5-1.4-6.8-1.4c-3.1,0-5.9,0.7-8.4,2.1c-2.5,1.4-4.5,3.2-5.9,5.6c-1.4,2.4-2.2,5-2.2,8
				c0,3,0.7,5.7,2.1,8.1c1.4,2.4,3.4,4.3,5.8,5.7c2.5,1.4,5.2,2.1,8.3,2.1c2.3,0,4.5-0.5,6.8-1.5c2.3-1,4.3-2.4,5.9-4.1l-4.6-4.8
				C577.8,93,576.5,93.9,575.1,94.5z"/>
			<path class="st1" d="M617.4,78.6c-1.5-2.4-3.4-4.2-6-5.6c-2.5-1.4-5.4-2.1-8.5-2.1c-3.1,0-6,0.7-8.5,2c-2.5,1.4-4.5,3.2-6,5.6
				c-1.5,2.4-2.2,5-2.2,8s0.7,5.7,2.2,8.1c1.5,2.4,3.5,4.3,6,5.7s5.4,2.1,8.5,2.1c3.1,0,6-0.7,8.5-2.1c2.5-1.4,4.5-3.3,6-5.7
				c1.4-2.4,2.2-5.1,2.2-8.1C619.6,83.6,618.9,80.9,617.4,78.6z M610.4,91.3c-0.8,1.4-1.8,2.5-3.1,3.3s-2.7,1.2-4.3,1.2
				c-1.5,0-3-0.4-4.3-1.2s-2.4-1.9-3.2-3.3s-1.2-3-1.2-4.7c0-1.7,0.4-3.3,1.2-4.6s1.9-2.5,3.2-3.3c1.3-0.8,2.8-1.2,4.3-1.2
				c1.6,0,3,0.4,4.3,1.2c1.3,0.8,2.3,1.9,3.1,3.3c0.8,1.4,1.2,2.9,1.2,4.6C611.5,88.3,611.2,89.8,610.4,91.3z"/>
		</g>
		<g>
			<path class="st0" d="M158.2,116.9c-1.6,0-2.8,0.5-3.8,1.6s-1.5,2.6-1.5,4.5v0.8c0,2,0.5,3.5,1.5,4.5c1,1.1,2.3,1.6,3.9,1.6
				c1.5,0,2.7-0.4,3.5-1.2c0.8-0.8,1.3-1.8,1.4-3l0-0.1h-2l0,0.1c-0.1,0.8-0.3,1.4-0.8,1.9c-0.5,0.5-1.2,0.8-2.1,0.8
				c-1,0-1.8-0.4-2.4-1.2c-0.6-0.8-0.9-1.9-0.9-3.3v-1c0-1.5,0.3-2.6,0.9-3.4c0.6-0.7,1.4-1.1,2.4-1.1c1,0,1.7,0.2,2.2,0.7
				s0.7,1.1,0.7,1.9v0.1h2v-0.1c0-1.2-0.4-2.2-1.3-3C160.9,117.3,159.7,116.9,158.2,116.9z"/>
			<path class="st0" d="M174.5,116.9c-1.6,0-2.9,0.5-3.9,1.6s-1.5,2.6-1.5,4.5v0.8c0,2,0.5,3.5,1.5,4.5c1,1.1,2.3,1.6,3.9,1.6
				s2.9-0.5,3.9-1.6c1-1.1,1.5-2.6,1.5-4.5V123c0-2-0.5-3.5-1.5-4.5S176.1,116.9,174.5,116.9z M177.9,123.9c0,1.4-0.3,2.5-0.9,3.3
				c-0.6,0.8-1.4,1.2-2.5,1.2c-1,0-1.8-0.4-2.5-1.2c-0.6-0.8-0.9-1.9-0.9-3.3v-1c0-1.4,0.3-2.5,0.9-3.3c0.6-0.8,1.4-1.2,2.5-1.2
				c1,0,1.8,0.4,2.5,1.2c0.6,0.8,0.9,1.9,0.9,3.3V123.9z"/>
			<path class="st0" d="M197.5,120.4c0.1-0.2,0.1-0.4,0.1-0.6h0.1c0,0.2,0,0.4,0,0.6c0,0.2,0,0.4,0,0.6v8.7h1.9v-12.6H197l-3.5,9
				c-0.1,0.2-0.1,0.4-0.2,0.5c-0.1,0.2-0.1,0.4-0.1,0.6h-0.1c0-0.2-0.1-0.4-0.1-0.5s-0.1-0.4-0.2-0.5l-3.5-9h-2.6v12.6h1.8V121
				c0-0.2,0-0.4,0-0.6c0-0.2,0-0.4,0-0.6h0.1c0,0.2,0.1,0.4,0.2,0.6c0.1,0.2,0.1,0.4,0.2,0.6l3.4,8.7h1.7l3.4-8.7
				C197.3,120.8,197.4,120.6,197.5,120.4z"/>
			<path class="st0" d="M213.6,126.1c-0.1,0.2-0.1,0.4-0.2,0.5c-0.1,0.2-0.1,0.4-0.1,0.6h-0.1c0-0.2-0.1-0.4-0.1-0.5
				s-0.1-0.4-0.2-0.5l-3.5-9h-2.6v12.6h1.8V121c0-0.2,0-0.4,0-0.6c0-0.2,0-0.4,0-0.6h0.1c0,0.2,0.1,0.4,0.2,0.6
				c0.1,0.2,0.1,0.4,0.2,0.6l3.4,8.7h1.7l3.4-8.7c0.1-0.2,0.1-0.4,0.2-0.6c0.1-0.2,0.1-0.4,0.1-0.6h0.1c0,0.2,0,0.4,0,0.6
				c0,0.2,0,0.4,0,0.6v8.7h1.9v-12.6h-2.6L213.6,126.1z"/>
			<polygon class="st0" points="228.9,124 234.2,124 234.2,122.4 228.9,122.4 228.9,118.7 235,118.7 235,117.1 226.9,117.1 
				226.9,129.7 235.1,129.7 235.1,128.1 228.9,128.1 			"/>
			<path class="st0" d="M248.9,123.7c0.8-0.7,1.1-1.6,1.1-2.8c0-1.2-0.4-2.1-1.1-2.8c-0.8-0.7-1.8-1-3.2-1h-4.3v12.6h2v-4.9h2.3
				c0.1,0,0.1,0,0.2,0l2.6,5h2.2l-2.9-5.3C248.2,124.2,248.6,124,248.9,123.7z M243.4,118.7h2.2c0.9,0,1.5,0.2,1.9,0.6
				c0.4,0.4,0.5,1,0.5,1.6c0,0.7-0.2,1.2-0.5,1.6c-0.4,0.4-1,0.7-1.9,0.7h-2.2V118.7z"/>
			<path class="st0" d="M265.2,128.7c0.8-0.8,1.3-1.8,1.4-3l0-0.1h-2l0,0.1c-0.1,0.8-0.3,1.4-0.8,1.9c-0.5,0.5-1.2,0.8-2.1,0.8
				c-1,0-1.8-0.4-2.4-1.2c-0.6-0.8-0.9-1.9-0.9-3.3v-1c0-1.5,0.3-2.6,0.9-3.4c0.6-0.7,1.4-1.1,2.4-1.1c1,0,1.7,0.2,2.2,0.7
				s0.7,1.1,0.7,1.9v0.1h2v-0.1c0-1.2-0.4-2.2-1.3-3c-0.9-0.8-2.1-1.2-3.6-1.2c-1.6,0-2.8,0.5-3.8,1.6s-1.5,2.6-1.5,4.5v0.8
				c0,2,0.5,3.5,1.5,4.5c1,1.1,2.3,1.6,3.9,1.6C263.2,130,264.4,129.6,265.2,128.7z"/>
			<rect x="273" y="117.1" class="st0" width="2" height="12.6"/>
			<path class="st0" d="M289.2,126.6l1.1,3.1h2.1l-4.8-12.7h-1.9l-4.8,12.7h1.9l1.1-3.1H289.2z M286.2,120.4
				c0.1-0.2,0.1-0.4,0.2-0.6c0-0.2,0.1-0.4,0.1-0.5h0.1c0,0.2,0.1,0.4,0.1,0.5c0,0.2,0.1,0.4,0.2,0.6l1.7,4.6h-4.1L286.2,120.4z"/>
			<polygon class="st0" points="305.9,128.1 300.1,128.1 300.1,117.1 298.1,117.1 298.1,129.7 305.9,129.7 			"/>
			<path class="st0" d="M329.8,123.9h-1.8c0,0.8-0.1,1.6-0.4,2.2l-2.5-3l0.8-0.5c0.6-0.4,1.1-0.8,1.4-1.2s0.5-1,0.5-1.7
				c0-0.8-0.3-1.5-0.9-2c-0.6-0.5-1.4-0.8-2.3-0.8c-1,0-1.8,0.3-2.4,0.8c-0.6,0.5-1,1.2-1,2.1c0,0.6,0.2,1.1,0.5,1.7
				c0.2,0.4,0.5,0.8,0.9,1.3c-0.6,0.4-1.1,0.8-1.6,1.3c-0.6,0.6-0.9,1.4-0.9,2.4c0,1,0.4,1.8,1.1,2.5c0.7,0.6,1.8,1,3.1,1
				c1.2,0,2.3-0.4,3.2-1.1l0.8,1h2.3l-1.8-2.3C329.4,126.4,329.8,125.2,329.8,123.9z M323.5,118.8c0.3-0.3,0.6-0.4,1.1-0.4
				c0.4,0,0.8,0.1,1,0.4c0.2,0.2,0.3,0.6,0.3,1c0,0.3-0.1,0.6-0.2,0.9c-0.2,0.3-0.5,0.5-0.9,0.8l-0.7,0.4c-0.3-0.4-0.5-0.7-0.7-0.9
				c-0.2-0.4-0.3-0.7-0.3-1.1C323.1,119.4,323.2,119,323.5,118.8z M324.3,128.4c-0.7,0-1.2-0.2-1.6-0.6c-0.4-0.4-0.6-0.9-0.6-1.4
				c0-0.6,0.2-1.1,0.6-1.5c0.2-0.3,0.6-0.6,1-0.9l2.9,3.5C325.8,128.1,325.1,128.4,324.3,128.4z"/>
			<path class="st0" d="M349.7,124.7l2.6,5h2.2l-2.9-5.3c0.4-0.2,0.8-0.4,1.1-0.7c0.8-0.7,1.1-1.6,1.1-2.8c0-1.2-0.4-2.1-1.1-2.8
				c-0.8-0.7-1.8-1-3.2-1h-4.3v12.6h2v-4.9h2.3C349.6,124.8,349.6,124.8,349.7,124.7z M347.2,118.7h2.2c0.9,0,1.5,0.2,1.9,0.6
				c0.4,0.4,0.5,1,0.5,1.6c0,0.7-0.2,1.2-0.5,1.6c-0.4,0.4-1,0.7-1.9,0.7h-2.2V118.7z"/>
			<polygon class="st0" points="368.8,128.1 362.6,128.1 362.6,124 367.9,124 367.9,122.4 362.6,122.4 362.6,118.7 368.7,118.7 
				368.7,117.1 360.6,117.1 360.6,129.7 368.8,129.7 			"/>
			<path class="st0" d="M382.5,129c0.8-0.7,1.3-1.5,1.3-2.6c0-1.1-0.3-1.9-1-2.5c-0.6-0.6-1.6-1.1-3-1.4c-1.3-0.4-2.2-0.7-2.6-1
				c-0.4-0.3-0.6-0.7-0.6-1.2c0-0.5,0.2-1,0.6-1.3c0.4-0.3,1-0.5,1.8-0.5c0.8,0,1.4,0.2,1.9,0.6c0.4,0.4,0.6,0.9,0.6,1.5v0.1h2v-0.1
				c0-1.1-0.4-2-1.2-2.7s-1.9-1-3.3-1s-2.4,0.3-3.2,1c-0.8,0.7-1.2,1.5-1.2,2.5c0,1,0.3,1.8,0.9,2.3c0.6,0.6,1.6,1,2.9,1.4
				c1.3,0.4,2.2,0.7,2.6,1c0.4,0.3,0.7,0.8,0.7,1.3c0,0.6-0.2,1.1-0.7,1.4c-0.5,0.4-1.1,0.5-2,0.5c-0.9,0-1.5-0.2-2-0.5
				c-0.5-0.4-0.7-0.9-0.7-1.6v-0.1h-2v0.1c0,1.2,0.4,2.1,1.3,2.8c0.9,0.7,2,1,3.4,1C380.6,130,381.7,129.6,382.5,129z"/>
			<rect x="390.2" y="117.1" class="st0" width="2" height="12.6"/>
			<path class="st0" d="M407.5,128.1c1.1-1.1,1.6-2.5,1.6-4.3V123c0-1.8-0.5-3.3-1.6-4.3s-2.5-1.6-4.1-1.6h-3.9v12.6h3.9
				C405,129.7,406.4,129.2,407.5,128.1z M401.5,128.1v-9.4h1.9c1.1,0,2,0.4,2.7,1.1c0.7,0.7,1,1.8,1,3.2v0.8c0,1.4-0.3,2.4-1,3.2
				c-0.7,0.7-1.6,1.1-2.7,1.1H401.5z"/>
			<polygon class="st0" points="424,128.1 417.9,128.1 417.9,124 423.2,124 423.2,122.4 417.9,122.4 417.9,118.7 424,118.7 
				424,117.1 415.9,117.1 415.9,129.7 424,129.7 			"/>
			<path class="st0" d="M440.3,129.7v-12.6h-1.8v8.3c0,0.2,0,0.4,0,0.6c0,0.2,0,0.4,0,0.6h-0.1c-0.1-0.2-0.1-0.3-0.2-0.5
				c-0.1-0.2-0.2-0.3-0.3-0.5l-5.3-8.5h-2.1v12.6h1.8v-8.3c0-0.2,0-0.4,0-0.6c0-0.2,0-0.4,0-0.6h0.1c0.1,0.2,0.2,0.3,0.2,0.5
				c0.1,0.2,0.2,0.3,0.3,0.5l5.3,8.5H440.3z"/>
			<polygon class="st0" points="446.1,118.7 450,118.7 450,129.7 452,129.7 452,118.7 455.9,118.7 455.9,117.1 446.1,117.1 			"/>
			<rect x="462" y="117.1" class="st0" width="2" height="12.6"/>
			<path class="st0" d="M474.6,117l-4.8,12.7h1.9l1.1-3.1h5.2l1.1,3.1h2.1l-4.8-12.7H474.6z M473.5,125l1.7-4.6
				c0.1-0.2,0.1-0.4,0.2-0.6c0-0.2,0.1-0.4,0.1-0.5h0.1c0,0.2,0.1,0.4,0.1,0.5s0.1,0.4,0.2,0.6l1.7,4.6H473.5z"/>
			<polygon class="st0" points="489,128.1 489,117.1 487.1,117.1 487.1,129.7 494.9,129.7 494.9,128.1 			"/>
			<path class="st0" d="M160.8,146c0.8-0.7,1.1-1.6,1.1-2.8c0-1.2-0.4-2.1-1.1-2.8c-0.8-0.7-1.8-1-3.2-1h-4.3V152h2v-4.9h2.3
				c0.1,0,0.1,0,0.2,0l2.6,5h2.2l-2.9-5.3C160.1,146.5,160.5,146.3,160.8,146z M155.3,141h2.2c0.9,0,1.5,0.2,1.9,0.6
				c0.4,0.4,0.5,1,0.5,1.6c0,0.7-0.2,1.2-0.5,1.6c-0.4,0.4-1,0.7-1.9,0.7h-2.2V141z"/>
			<polygon class="st0" points="170.7,146.3 176,146.3 176,144.7 170.7,144.7 170.7,141 176.8,141 176.8,139.4 168.7,139.4 
				168.7,152 176.9,152 176.9,150.4 170.7,150.4 			"/>
			<path class="st0" d="M187.6,139.4h-4.4V152h2v-4.8h2.4c1.4,0,2.5-0.4,3.3-1.1c0.8-0.7,1.1-1.7,1.1-2.9s-0.4-2.2-1.1-2.9
				C190.1,139.8,189,139.4,187.6,139.4z M189.5,145c-0.4,0.4-1,0.7-1.9,0.7h-2.3V141h2.3c0.9,0,1.6,0.2,1.9,0.7
				c0.4,0.4,0.5,1,0.5,1.7S189.8,144.6,189.5,145z"/>
			<path class="st0" d="M200.7,139.4l-4.8,12.7h1.9l1.1-3.1h5.2l1.1,3.1h2.1l-4.8-12.7H200.7z M199.6,147.3l1.7-4.6
				c0.1-0.2,0.1-0.4,0.2-0.6c0-0.2,0.1-0.4,0.1-0.5h0.1c0,0.2,0.1,0.4,0.1,0.5c0,0.2,0.1,0.4,0.2,0.6l1.7,4.6H199.6z"/>
			<rect x="213.2" y="139.4" class="st0" width="2" height="12.6"/>
			<path class="st0" d="M229.9,146c0.8-0.7,1.1-1.6,1.1-2.8c0-1.2-0.4-2.1-1.1-2.8c-0.8-0.7-1.8-1-3.2-1h-4.3V152h2v-4.9h2.3
				c0.1,0,0.1,0,0.2,0l2.6,5h2.2l-2.9-5.3C229.2,146.5,229.6,146.3,229.9,146z M224.4,141h2.2c0.9,0,1.5,0.2,1.9,0.6
				c0.4,0.4,0.5,1,0.5,1.6c0,0.7-0.2,1.2-0.5,1.6c-0.4,0.4-1,0.7-1.9,0.7h-2.2V141z"/>
			<path class="st0" d="M242.5,144.7c-1.3-0.4-2.2-0.7-2.6-1c-0.4-0.3-0.6-0.7-0.6-1.2c0-0.5,0.2-1,0.6-1.3c0.4-0.3,1-0.5,1.8-0.5
				c0.8,0,1.4,0.2,1.9,0.6c0.4,0.4,0.6,0.9,0.6,1.5v0.1h2v-0.1c0-1.1-0.4-2-1.2-2.7s-1.9-1-3.3-1s-2.4,0.3-3.2,1
				c-0.8,0.7-1.2,1.5-1.2,2.5c0,1,0.3,1.8,0.9,2.3c0.6,0.6,1.6,1,2.9,1.4c1.3,0.4,2.2,0.7,2.6,1c0.4,0.3,0.7,0.8,0.7,1.3
				c0,0.6-0.2,1.1-0.7,1.4s-1.1,0.5-2,0.5c-0.9,0-1.5-0.2-2-0.5c-0.5-0.4-0.7-0.9-0.7-1.6v-0.1h-2v0.1c0,1.2,0.4,2.1,1.3,2.8
				c0.9,0.7,2,1,3.4,1s2.5-0.3,3.4-1c0.8-0.7,1.3-1.5,1.3-2.6c0-1.1-0.3-1.9-1-2.5C244.8,145.6,243.8,145.1,242.5,144.7z"/>
			<path class="st0" d="M270.4,146.2h-1.8c0,0.8-0.1,1.6-0.4,2.2l-2.5-3l0.8-0.5c0.6-0.4,1.1-0.8,1.4-1.2s0.5-1,0.5-1.7
				c0-0.8-0.3-1.5-0.9-2c-0.6-0.5-1.4-0.8-2.3-0.8c-1,0-1.8,0.3-2.4,0.8c-0.6,0.5-1,1.2-1,2.1c0,0.6,0.2,1.1,0.5,1.7
				c0.2,0.4,0.5,0.8,0.9,1.3c-0.6,0.4-1.1,0.8-1.6,1.3c-0.6,0.6-0.9,1.4-0.9,2.4c0,1,0.4,1.8,1.1,2.5c0.7,0.6,1.8,1,3.1,1
				c1.2,0,2.3-0.4,3.2-1.1l0.8,1h2.3l-1.8-2.3C270.1,148.7,270.4,147.6,270.4,146.2z M264.2,141.1c0.3-0.3,0.6-0.4,1.1-0.4
				c0.4,0,0.8,0.1,1,0.4c0.2,0.2,0.3,0.6,0.3,1c0,0.3-0.1,0.6-0.2,0.9c-0.2,0.3-0.5,0.5-0.9,0.8l-0.7,0.4c-0.3-0.4-0.5-0.7-0.7-0.9
				c-0.2-0.4-0.3-0.7-0.3-1.1C263.8,141.7,263.9,141.4,264.2,141.1z M265,150.7c-0.7,0-1.2-0.2-1.6-0.6c-0.4-0.4-0.6-0.9-0.6-1.4
				c0-0.6,0.2-1.1,0.6-1.5c0.2-0.3,0.6-0.6,1-0.9l2.9,3.5C266.5,150.4,265.8,150.7,265,150.7z"/>
			<path class="st0" d="M293.4,146c0.8-0.7,1.1-1.6,1.1-2.8c0-1.2-0.4-2.1-1.1-2.8c-0.8-0.7-1.8-1-3.2-1h-4.3V152h2v-4.9h2.3
				c0.1,0,0.1,0,0.2,0l2.6,5h2.2l-2.9-5.3C292.7,146.5,293.1,146.3,293.4,146z M287.9,141h2.2c0.9,0,1.5,0.2,1.9,0.6
				c0.4,0.4,0.5,1,0.5,1.6c0,0.7-0.2,1.2-0.5,1.6c-0.4,0.4-1,0.7-1.9,0.7h-2.2V141z"/>
			<polygon class="st0" points="303.3,146.3 308.6,146.3 308.6,144.7 303.3,144.7 303.3,141 309.4,141 309.4,139.4 301.3,139.4 
				301.3,152 309.4,152 309.4,150.4 303.3,150.4 			"/>
			<path class="st0" d="M323.8,147.8c0,0.2,0,0.4,0,0.6c0,0.2,0,0.4,0,0.6h-0.1c-0.1-0.2-0.1-0.3-0.2-0.5c-0.1-0.2-0.2-0.3-0.3-0.5
				l-5.3-8.5h-2.1V152h1.8v-8.3c0-0.2,0-0.4,0-0.6c0-0.2,0-0.4,0-0.6h0.1c0.1,0.2,0.2,0.3,0.2,0.5s0.2,0.3,0.3,0.5l5.3,8.5h2.1
				v-12.6h-1.8V147.8z"/>
			<path class="st0" d="M337.8,139.2c-1.6,0-2.9,0.5-3.9,1.6c-1,1.1-1.5,2.6-1.5,4.5v0.8c0,2,0.5,3.5,1.5,4.5c1,1.1,2.3,1.6,3.9,1.6
				c1.6,0,2.9-0.5,3.9-1.6c1-1.1,1.5-2.6,1.5-4.5v-0.8c0-2-0.5-3.5-1.5-4.5S339.4,139.2,337.8,139.2z M341.2,146.2
				c0,1.4-0.3,2.5-0.9,3.3c-0.6,0.8-1.4,1.2-2.5,1.2c-1,0-1.8-0.4-2.5-1.2c-0.6-0.8-0.9-1.9-0.9-3.3v-1c0-1.4,0.3-2.5,0.9-3.3
				c0.6-0.8,1.4-1.2,2.5-1.2c1,0,1.8,0.4,2.5,1.2c0.6,0.8,0.9,1.9,0.9,3.3V146.2z"/>
			<path class="st0" d="M354.4,148.5c-0.1,0.2-0.1,0.3-0.2,0.5c0,0.1-0.1,0.3-0.1,0.5H354c0-0.2-0.1-0.3-0.1-0.5
				c0-0.1-0.1-0.3-0.2-0.5l-3.2-9.1h-2.1l4.7,12.7h1.9l4.7-12.7h-2L354.4,148.5z"/>
			<path class="st0" d="M368.1,139.4l-4.8,12.7h1.9l1.1-3.1h5.2l1.1,3.1h2.1l-4.8-12.7H368.1z M367,147.3l1.7-4.6
				c0.1-0.2,0.1-0.4,0.2-0.6c0-0.2,0.1-0.4,0.1-0.5h0.1c0,0.2,0.1,0.4,0.1,0.5s0.1,0.4,0.2,0.6l1.7,4.6H367z"/>
			<polygon class="st0" points="378.3,141 382.2,141 382.2,152 384.2,152 384.2,141 388.1,141 388.1,139.4 378.3,139.4 			"/>
			<rect x="394.2" y="139.4" class="st0" width="2" height="12.6"/>
			<path class="st0" d="M408.3,139.2c-1.6,0-2.9,0.5-3.9,1.6c-1,1.1-1.5,2.6-1.5,4.5v0.8c0,2,0.5,3.5,1.5,4.5c1,1.1,2.3,1.6,3.9,1.6
				c1.6,0,2.9-0.5,3.9-1.6c1-1.1,1.5-2.6,1.5-4.5v-0.8c0-2-0.5-3.5-1.5-4.5S409.9,139.2,408.3,139.2z M411.7,146.2
				c0,1.4-0.3,2.5-0.9,3.3c-0.6,0.8-1.4,1.2-2.5,1.2c-1,0-1.8-0.4-2.5-1.2c-0.6-0.8-0.9-1.9-0.9-3.3v-1c0-1.4,0.3-2.5,0.9-3.3
				c0.6-0.8,1.4-1.2,2.5-1.2c1,0,1.8,0.4,2.5,1.2c0.6,0.8,0.9,1.9,0.9,3.3V146.2z"/>
			<path class="st0" d="M428.5,147.8c0,0.2,0,0.4,0,0.6c0,0.2,0,0.4,0,0.6h-0.1c-0.1-0.2-0.1-0.3-0.2-0.5c-0.1-0.2-0.2-0.3-0.3-0.5
				l-5.3-8.5h-2.1V152h1.8v-8.3c0-0.2,0-0.4,0-0.6c0-0.2,0-0.4,0-0.6h0.1c0.1,0.2,0.2,0.3,0.2,0.5c0.1,0.2,0.2,0.3,0.3,0.5l5.3,8.5
				h2.1v-12.6h-1.8V147.8z"/>
			<path class="st0" d="M442.3,144.7c-1.3-0.4-2.2-0.7-2.6-1c-0.4-0.3-0.6-0.7-0.6-1.2c0-0.5,0.2-1,0.6-1.3c0.4-0.3,1-0.5,1.8-0.5
				c0.8,0,1.4,0.2,1.9,0.6c0.4,0.4,0.6,0.9,0.6,1.5v0.1h2v-0.1c0-1.1-0.4-2-1.2-2.7s-1.9-1-3.3-1s-2.4,0.3-3.2,1
				c-0.8,0.7-1.2,1.5-1.2,2.5c0,1,0.3,1.8,0.9,2.3c0.6,0.6,1.6,1,2.9,1.4c1.3,0.4,2.2,0.7,2.6,1c0.4,0.3,0.7,0.8,0.7,1.3
				c0,0.6-0.2,1.1-0.7,1.4c-0.5,0.4-1.1,0.5-2,0.5c-0.9,0-1.5-0.2-2-0.5c-0.5-0.4-0.7-0.9-0.7-1.6v-0.1h-2v0.1
				c0,1.2,0.4,2.1,1.3,2.8c0.9,0.7,2,1,3.4,1c1.4,0,2.5-0.3,3.4-1c0.8-0.7,1.3-1.5,1.3-2.6c0-1.1-0.3-1.9-1-2.5
				C444.6,145.6,443.6,145.1,442.3,144.7z"/>
		</g>
	</g>
</g>
</svg>
